<?xml version="1.0" standalone="no"?>
<!DOCTYPE svg PUBLIC "-//W3C//DTD SVG 20010904//EN"
 "http://www.w3.org/TR/2001/REC-SVG-20010904/DTD/svg10.dtd">
<svg version="1.0" xmlns="http://www.w3.org/2000/svg"
 width="296.000000pt" height="171.000000pt" viewBox="0 0 296.000000 171.000000"
 preserveAspectRatio="xMidYMid meet">

<g transform="translate(0.000000,171.000000) scale(0.100000,-0.100000)"
fill="#000000" stroke="none">
<path d="M1315 1626 c-44 -16 -209 -181 -199 -198 9 -14 -5 -60 -18 -56 -6 2
-50 -37 -97 -87 -144 -151 -205 -296 -205 -490 0 -150 28 -248 109 -375 126
-197 335 -310 575 -310 318 0 583 203 666 511 11 42 17 102 18 174 0 126 -21
212 -82 330 -46 90 -180 225 -272 275 -48 26 -74 49 -102 89 -22 32 -65 73
-103 99 -65 46 -67 46 -158 49 -62 2 -105 -1 -132 -11z m325 -366 l52 -65 -5
-100 c-3 -55 -1 -91 3 -80 14 38 22 -48 18 -199 -2 -80 0 -140 3 -134 8 13 22
-63 24 -140 2 -73 19 -97 72 -107 27 -5 33 -9 22 -16 -27 -17 -75 -10 -99 16
-21 22 -22 30 -16 94 8 83 -5 99 -29 35 -20 -53 -15 -106 12 -137 l18 -20 -33
19 c-47 27 -50 53 -12 139 18 40 30 79 28 86 -5 16 -43 -60 -60 -121 l-13 -45
-3 42 c-2 24 6 72 18 110 12 37 25 111 30 163 6 52 12 118 15 145 l6 50 -21
-55 c-38 -101 -42 -120 -31 -152 17 -48 13 -80 -15 -144 -15 -33 -32 -77 -39
-99 l-13 -40 -1 37 c-1 20 6 67 15 104 18 77 16 204 -2 197 -7 -2 -10 -13 -7
-23 3 -10 -3 -46 -13 -79 -17 -58 -21 -62 -57 -72 -21 -5 -65 -9 -99 -7 l-62
3 -16 65 c-17 67 -52 144 -70 155 -5 3 -10 16 -10 28 0 12 -11 45 -25 72 -13
28 -25 58 -25 68 0 10 -5 28 -11 40 -12 22 -12 22 9 4 11 -10 23 -29 26 -43 4
-13 11 -24 16 -24 6 0 11 -17 12 -37 l1 -38 4 33 c3 21 -3 45 -14 65 -33 55
-42 93 -32 129 7 27 19 37 63 56 34 15 63 21 76 17 46 -15 80 -14 88 2 7 12
21 15 61 11 34 -3 54 -1 61 8 8 9 7 14 -1 20 -9 5 -7 11 6 20 10 8 19 13 21
11 1 -1 25 -31 54 -67z m129 -93 c1 -10 13 -30 27 -44 l26 -26 -5 -206 c-4
-159 -9 -217 -22 -256 -27 -78 -35 -76 -35 11 0 46 -9 110 -20 153 -23 86 -25
153 -5 196 12 28 14 23 15 -70 l2 -100 15 55 c20 78 21 178 1 221 -8 18 -18
63 -20 99 -5 64 -5 65 8 25 7 -22 13 -48 13 -58z m-587 -199 c-7 -7 -12 -8
-12 -2 0 14 12 26 19 19 2 -3 -1 -11 -7 -17z m-157 -73 c13 -52 13 -61 -1 -92
-11 -21 -14 -45 -10 -65 5 -23 3 -29 -4 -22 -17 17 -31 142 -24 207 8 67 15
62 39 -28z m119 49 c-4 -16 0 -38 12 -60 20 -36 29 -42 37 -21 3 7 6 5 6 -5 1
-10 -2 -18 -6 -18 -5 0 -8 -26 -8 -58 -1 -77 -11 -112 -34 -112 -27 0 -44 84
-25 122 17 32 18 80 3 95 -8 8 -8 21 1 47 13 41 24 49 14 10z m743 -14 c75
-48 97 -110 64 -182 l-19 -43 -12 30 c-6 16 -17 33 -23 37 -9 6 -9 8 0 8 7 0
17 -8 22 -17 9 -16 12 -16 21 -3 5 8 10 32 10 54 0 39 -18 62 -97 123 -41 32
-22 28 34 -7z m-657 -11 c0 -11 -4 -17 -10 -14 -5 3 -11 -2 -11 -12 -1 -16 -2
-16 -6 -1 -2 10 2 24 9 32 17 20 18 20 18 -5z m4 -65 c11 -28 6 -39 -9 -20 -8
11 -15 23 -15 28 0 14 18 9 24 -8z m633 -126 c-3 -7 -5 -2 -5 12 0 14 2 19 5
13 2 -7 2 -19 0 -25z m-791 -136 c-6 -78 -35 -159 -67 -188 -15 -14 -12 -2 13
52 29 60 33 82 37 164 3 75 5 90 13 70 6 -14 7 -58 4 -98z m129 48 c-3 -5 -10
-29 -14 -52 l-9 -43 -1 53 c-1 41 2 52 15 52 8 0 12 -4 9 -10z m-90 -106 c-3
-18 -15 -43 -26 -56 l-21 -23 17 29 c10 16 20 59 24 95 5 54 7 59 9 26 2 -21
1 -54 -3 -71z m649 -37 c4 -19 3 -26 -4 -22 -5 3 -10 18 -10 32 0 32 5 28 14
-10z"/>
<path d="M1001 855 c0 -42 2 -46 11 -28 7 15 7 30 0 50 -10 26 -10 24 -11 -22z"/>
<path d="M1142 700 c0 -14 2 -19 5 -12 2 6 2 18 0 25 -3 6 -5 1 -5 -13z"/>
</g>
</svg>
